<svg width="429" height="512" viewBox="0 0 429 512" fill="none" xmlns="http://www.w3.org/2000/svg">
<g clip-path="url(#clip0_660_4399)">
<path d="M425.689 136.137L171.439 390.276C164.322 397.389 169.364 409.552 179.427 409.552H313.09C319.328 409.552 324.386 404.496 324.386 398.26V324.455C324.386 321.461 325.577 318.587 327.694 316.47L409.712 234.489C416.829 227.375 428.997 232.414 428.997 242.473V327.931C428.997 333.523 426.775 338.887 422.817 342.841L356.076 409.552L324.386 441.228L259.718 505.868C255.792 509.792 250.467 511.997 244.915 511.997H11.2963C5.05781 511.997 0 506.941 0 500.705V413.174C0 410.179 1.19046 407.305 3.30791 405.189L405.37 3.30646C407.487 1.18993 410.363 0 413.358 0H417.7C423.939 0 428.997 5.05559 428.997 11.2914V128.152C428.997 131.146 427.806 134.02 425.689 136.137Z" fill="#4A3AFF"/>
<path d="M310.14 19.2763L19.2847 310.004C12.168 317.117 0 312.078 0 302.019V11.2914C0 5.05559 5.05781 0 11.2963 0H302.151C312.215 0 317.257 12.1627 310.14 19.2763Z" fill="#962DFF"/>
</g>
<defs>
<clipPath id="clip0_660_4399">
<rect width="429" height="512" fill="white"/>
</clipPath>
</defs>
</svg>
