<?xml version="1.0" encoding="UTF-8"?>
<svg id="one_line_logo" data-name="one line logo" xmlns="http://www.w3.org/2000/svg" viewBox="0 0 619.38 102.34">
  <defs>
    <style>
      .cls-1 {
        fill: #231f20;
        font-family: BDSans-Regular, 'Beautifully Delicious Sans';
        font-size: 22.79px;
      }

      .cls-2 {
        fill: #d5397b;
      }

      .cls-3 {
        fill: #632c8b;
      }

      .cls-4 {
        fill: #5a2c7e;
      }
    </style>
  </defs>
  <g>
    <path class="cls-4" d="m48.78.03c1.23,0,2.25.21,3.06.63.81.42,1.47,1.01,1.97,1.76.5.75.85,1.61,1.05,2.56.19.95.29,1.98.29,3.1v9.3c0,1.96-.24,3.52-.71,4.69-.48,1.17-1.52,2.35-3.14,3.52L12.4,53.68v3.02h39.98c.84,0,1.44.28,1.8.84.36.56.54,1.23.54,2.01v6.7c0,.78-.18,1.45-.54,2.01-.36.56-.96.84-1.8.84H6.37c-1.29,0-2.33-.21-3.14-.63-.81-.42-1.45-.98-1.93-1.68-.48-.7-.81-1.54-1.01-2.51-.2-.98-.29-2.02-.29-3.14v-8.97c0-1.01.03-1.9.08-2.68.06-.78.2-1.51.42-2.18.22-.67.59-1.3,1.09-1.89s1.17-1.19,2.01-1.8L42.75,15.29v-2.85H2.77c-.84,0-1.44-.28-1.8-.84-.36-.56-.54-1.23-.54-2.01V2.88c0-.78.18-1.45.54-2.01C1.33.31,1.93.03,2.77.03h46.02Z"/>
    <path class="cls-4" d="m81.13.03c.34,0,.81.17,1.43.5.61.33.92,1.14.92,2.43v63.28c0,1.29-.31,2.1-.92,2.43-.62.34-1.09.5-1.43.5h-7.71c-.33,0-.81-.17-1.42-.5-.62-.33-.92-1.14-.92-2.43V2.97c0-1.29.31-2.1.92-2.43.61-.34,1.09-.5,1.42-.5h7.71Z"/>
    <path class="cls-4" d="m144.33,40.35c.34.5.92,1.47,1.76,2.89.84,1.43,1.81,3.07,2.93,4.95,1.12,1.87,2.28,3.83,3.48,5.87,1.2,2.04,2.32,3.97,3.35,5.78,1.03,1.82,1.87,3.35,2.51,4.61.64,1.26.96,2.05.96,2.39,0,.62-.14,1.15-.42,1.59-.28.45-.78.67-1.51.67h-9.22c-.67,0-1.2-.13-1.59-.38-.39-.25-.76-.69-1.09-1.3l-15.17-26.82h-17.69v25.57c0,.78-.18,1.47-.54,2.05-.36.59-.96.88-1.8.88h-7.63c-.84,0-1.45-.29-1.84-.88-.39-.59-.59-1.27-.59-2.05V31.04c0-.78.18-1.45.54-2.01.36-.56.99-.84,1.89-.84h36.46c1.28,0,2.3-.21,3.06-.63.76-.42,1.33-.99,1.72-1.72.39-.73.66-1.56.8-2.51s.21-1.96.21-3.02-.07-2.07-.21-3.02-.41-1.79-.8-2.51c-.39-.72-.96-1.3-1.72-1.72-.75-.42-1.77-.63-3.06-.63h-36.46c-.9,0-1.52-.28-1.89-.84-.36-.56-.54-1.23-.54-2.01V2.97c0-.78.18-1.47.54-2.05.36-.59.99-.88,1.89-.88h38.64c3.18,0,5.81.53,7.88,1.59s3.7,2.51,4.9,4.36c1.2,1.84,2.05,4,2.56,6.45.5,2.46.75,5.08.75,7.88,0,2.35-.18,4.65-.54,6.91-.36,2.26-1.04,4.3-2.01,6.12-.98,1.82-2.3,3.35-3.98,4.61-1.68,1.26-3.86,2.05-6.54,2.39Z"/>
    <path class="cls-4" d="m213.82.03c4.36,0,7.89.66,10.6,1.97,2.71,1.31,4.82,3.13,6.33,5.45,1.51,2.32,2.51,5.08,3.02,8.3.5,3.21.76,6.72.76,10.52v16.6c0,3.8-.25,7.31-.76,10.52-.5,3.21-1.49,5.99-2.97,8.34-1.48,2.35-3.58,4.18-6.29,5.49-2.71,1.31-6.27,1.97-10.69,1.97h-20.45c-4.36,0-7.89-.67-10.6-2.01-2.71-1.34-4.81-3.18-6.29-5.53-1.48-2.35-2.47-5.13-2.97-8.34-.5-3.21-.75-6.69-.75-10.43v-16.6c0-3.74.25-7.22.75-10.43.5-3.21,1.51-5.99,3.02-8.34,1.51-2.35,3.6-4.18,6.29-5.49,2.68-1.31,6.2-1.97,10.56-1.97h20.45Zm8.21,24.81c0-1.73-.06-3.35-.17-4.86-.11-1.51-.43-2.82-.96-3.94-.53-1.12-1.38-2-2.56-2.64s-2.82-.96-4.95-.96h-19.61c-2.07,0-3.69.32-4.86.96-1.17.64-2.04,1.52-2.6,2.64-.56,1.12-.9,2.43-1.01,3.94-.11,1.51-.17,3.13-.17,4.86v19.53c0,1.73.06,3.35.17,4.86.11,1.51.45,2.81,1.01,3.9.56,1.09,1.42,1.96,2.6,2.6,1.17.64,2.79.96,4.86.96h19.61c2.12,0,3.77-.32,4.95-.96,1.17-.64,2.02-1.51,2.56-2.6.53-1.09.85-2.39.96-3.9.11-1.51.17-3.13.17-4.86v-19.53Z"/>
    <path class="cls-4" d="m296.1,0c.84,0,1.44.29,1.81.88.36.59.55,1.28.55,2.06v99.39l-35.92-86.61h0v50.64c0,.79-.18,1.47-.55,2.06-.37.59-.97.88-1.81.88h-7.49c-.84,0-1.46-.29-1.85-.88-.39-.59-.59-1.27-.59-2.06V10.85c0-1.35.07-2.66.21-3.95.14-1.29.46-2.44.97-3.45.5-1.01,1.23-1.84,2.19-2.48.95-.64,2.24-.97,3.87-.97h5.89c1.4,0,2.54.11,3.41.34.87.22,1.6.58,2.19,1.05.59.48,1.14,1.11,1.64,1.89.51.79,1.07,1.74,1.68,2.86l13.55,33.17h.42V2.94c0-.79.17-1.47.5-2.06.34-.59.95-.88,1.85-.88h7.49Z"/>
  </g>
  <g>
    <path class="cls-2" d="m380.59.85c1.65,0,2.92.32,3.8.97s1.51,1.45,1.9,2.4c.39.96.62,2.03.7,3.22s.12,2.33.12,3.41v51.18c0,.73-.18,1.36-.54,1.9-.36.54-.93.81-1.71.81h-6.67c-.78,0-1.33-.27-1.67-.81-.34-.54-.51-1.17-.51-1.9V15.35h-.39l-13.49,33.03c-.47,1.19-.96,2.34-1.47,3.45-.52,1.11-1.16,2.09-1.94,2.95-.78.85-1.73,1.54-2.87,2.06-1.14.52-2.59.78-4.34.78-1.24,0-2.35-.12-3.33-.35-.98-.23-1.89-.67-2.71-1.32-.83-.65-1.62-1.57-2.37-2.79-.75-1.21-1.51-2.8-2.29-4.77l-13.49-33.03h-.39v46.68c0,.73-.17,1.36-.5,1.9-.34.54-.89.81-1.67.81h-6.67c-.78,0-1.34-.27-1.71-.81-.36-.54-.54-1.17-.54-1.9V10.86c0-1.24.05-2.47.15-3.68.1-1.21.36-2.29.78-3.22.41-.93,1.06-1.68,1.94-2.25.88-.57,2.12-.85,3.72-.85h7.13c1.4,0,2.51.17,3.33.51.83.34,1.5.83,2.02,1.47.52.65.93,1.42,1.24,2.33.31.91.7,1.9,1.16,2.99l13.8,34.58h.85l13.96-34.58c.47-1.09.85-2.08,1.16-2.99.31-.9.72-1.67,1.24-2.29.52-.62,1.18-1.11,1.98-1.47.8-.36,1.9-.54,3.3-.54h6.98Z"/>
    <path class="cls-3" d="m448.52.85c.31,0,.75.16,1.32.47.57.31.85,1.06.85,2.25v6.05c0,1.19-.28,1.94-.85,2.25-.57.31-1.01.46-1.32.46h-44.59c-.31,0-.74-.14-1.28-.43-.54-.28-.81-1.02-.81-2.21V3.64c0-1.24.27-2.02.81-2.33.54-.31.97-.47,1.28-.47h44.59Z"/>
    <path class="cls-2" d="m413.47,46.22c0,2.64.68,4.47,2.05,5.51,1.37,1.03,3.24,1.55,5.62,1.55h27.3c.83,0,1.41.26,1.75.78.34.52.5,1.14.5,1.86v6.2c0,.72-.17,1.34-.5,1.86s-.92.78-1.75.78h-27.53c-3.72,0-6.81-.53-9.27-1.59-2.46-1.06-4.41-2.57-5.85-4.54-1.45-1.96-2.47-4.33-3.06-7.1-.59-2.76-.89-5.85-.89-9.27v-10.24c0-.62.1-1.25.31-1.9.21-.65.55-1.21,1.05-1.71s1.14-.89,1.94-1.2,1.8-.47,2.99-.47h40.01c.78,0,1.33.26,1.67.78.34.52.5,1.14.5,1.86v6.13c0,.73-.17,1.36-.5,1.9-.34.54-.89.81-1.67.81h-34.66v7.99Z"/>
    <path class="cls-2" d="m497.84.85c4.19,0,7.64.66,10.35,1.98,2.71,1.32,4.85,3.14,6.4,5.47,1.55,2.33,2.62,5.07,3.22,8.22.59,3.15.89,6.57.89,10.24v12.1c0,3.72-.3,7.16-.89,10.31-.59,3.15-1.67,5.88-3.22,8.18-1.55,2.3-3.68,4.11-6.4,5.43-2.71,1.32-6.17,1.98-10.35,1.98h-26.44c-.72,0-1.49-.14-2.29-.43-.8-.28-1.53-.68-2.17-1.2-.65-.52-1.19-1.12-1.63-1.82-.44-.7-.66-1.46-.66-2.29V6.13c0-1.6.61-2.88,1.82-3.84,1.21-.96,2.65-1.44,4.3-1.44h27.06Zm-.23,52.42c2.22,0,3.97-.34,5.23-1.01,1.27-.67,2.22-1.61,2.87-2.83.65-1.21,1.06-2.62,1.24-4.23.18-1.6.27-3.33.27-5.2v-14.42c0-1.86-.09-3.59-.27-5.2-.18-1.6-.59-3-1.24-4.19s-1.6-2.13-2.87-2.83c-1.27-.7-3.01-1.05-5.23-1.05h-21.48v40.94h21.48Z"/>
    <path class="cls-2" d="m542.73.85c.31,0,.75.16,1.32.47.57.31.85,1.06.85,2.25v58.55c0,1.19-.28,1.94-.85,2.25-.57.31-1.01.47-1.32.47h-7.13c-.31,0-.75-.16-1.32-.47-.57-.31-.85-1.06-.85-2.25V3.57c0-1.19.28-1.94.85-2.25.57-.31,1.01-.47,1.32-.47h7.13Z"/>
    <path class="cls-2" d="m587.55,0c1.4,0,2.6.21,3.61.62,1.01.41,1.89.97,2.64,1.67.75.7,1.39,1.54,1.94,2.52.54.98,1.05,2.07,1.51,3.26l21.79,53.74c.21.52.31.96.31,1.32,0,.52-.17.93-.5,1.24s-.76.47-1.28.47h-8.3c-1.08,0-1.83-.57-2.25-1.71l-19.31-48.16h-.31l-10.08,25.36h9.62c1.03,0,1.78.52,2.25,1.55.15.36.4.92.74,1.67.34.75.67,1.51,1.01,2.29.34.78.62,1.51.85,2.21.23.7.35,1.23.35,1.59,0,.73-.23,1.32-.7,1.78-.46.47-1.06.7-1.78.7h-16.98l-4.42,11.09c-.41,1.08-1.14,1.63-2.17,1.63h-8.53c-1.19,0-1.78-.57-1.78-1.71,0-.52.08-.96.23-1.32l21.63-53.74c.93-2.33,2.14-4.25,3.64-5.78,1.5-1.53,3.59-2.29,6.28-2.29Z"/>
  </g>
  <text class="cls-1" transform="translate(315.84 94.48)"><tspan x="0" y="0">Discovering Together!</tspan></text>
</svg>